<svg width="65" height="65" viewBox="0 0 65 65" fill="none" xmlns="http://www.w3.org/2000/svg">
<path d="M32.4997 16.2498C35.4912 16.2498 37.9163 13.8247 37.9163 10.8332C37.9163 7.84163 35.4912 5.4165 32.4997 5.4165C29.5081 5.4165 27.083 7.84163 27.083 10.8332C27.083 13.8247 29.5081 16.2498 32.4997 16.2498Z" fill="#FCD900"/>
<path d="M46.0417 21.6665H20.3125V29.7915H46.0417V21.6665Z" fill="#7C6F66"/>
<path d="M50.1042 35.2082V60.9373C50.1042 61.6556 49.8188 62.3445 49.3109 62.8524C48.803 63.3603 48.1141 63.6457 47.3958 63.6457H18.9583C18.24 63.6457 17.5512 63.3603 17.0433 62.8524C16.5353 62.3445 16.25 61.6556 16.25 60.9373V35.2082L20.3125 29.7915H46.0417L50.1042 35.2082Z" fill="white"/>
<path d="M48.7503 44.6874V62.2916H17.6045V50.1041C17.6053 49.4173 17.7803 48.742 18.1129 48.1412C18.4456 47.5404 18.9251 47.0338 19.5067 46.6686C20.0883 46.3034 20.7529 46.0916 21.4386 46.053C22.1242 46.0144 22.8085 46.1502 23.4274 46.4478C23.1616 45.8989 23.0227 45.2973 23.0212 44.6874C23.0207 43.8145 23.3014 42.9646 23.8216 42.2637C24.3419 41.5628 25.0741 41.0481 25.9098 40.7959C26.7455 40.5437 27.6402 40.5673 28.4614 40.8634C29.2826 41.1594 29.9866 41.7121 30.4691 42.4395C30.9715 41.6874 31.7105 41.1245 32.5691 40.84C33.4276 40.5554 34.3565 40.5655 35.2087 40.8687C35.2087 39.7912 35.6367 38.7579 36.3985 37.996C37.1604 37.2342 38.1937 36.8062 39.2712 36.8062C40.3486 36.8062 41.3819 37.2342 42.1438 37.996C42.9056 38.7579 43.3337 39.7912 43.3337 40.8687C43.9455 40.6523 44.6003 40.5857 45.2431 40.6744C45.886 40.7631 46.4983 41.0046 47.0287 41.3785C47.5591 41.7524 47.9922 42.248 48.2917 42.8237C48.5912 43.3994 48.7485 44.0384 48.7503 44.6874Z" fill="#FCD900"/>
<path d="M32.5004 17.604C33.9214 17.604 35.3065 17.1569 36.4593 16.326C37.6122 15.495 38.4743 14.3224 38.9237 12.9743C39.3731 11.6261 39.3869 10.1708 38.9632 8.81433C38.5395 7.45789 37.6997 6.26915 36.5629 5.4165V1.354H33.8545V4.19775C32.9275 4.00951 31.9713 4.01761 31.0475 4.22154C30.1238 4.42547 29.253 4.8207 28.4914 5.38176C27.7298 5.94281 27.0942 6.65723 26.6255 7.47897C26.1569 8.30071 25.8657 9.21153 25.7706 10.1527C25.6755 11.0939 25.7787 12.0446 26.0736 12.9434C26.3684 13.8423 26.8483 14.6694 27.4824 15.3714C28.1164 16.0734 28.8905 16.6348 29.7548 17.0194C30.6191 17.4039 31.5544 17.6031 32.5004 17.604ZM32.5004 6.77067C33.3038 6.77067 34.0893 7.00893 34.7574 7.45533C35.4254 7.90172 35.9461 8.53619 36.2536 9.27852C36.5611 10.0208 36.6416 10.8377 36.4848 11.6257C36.328 12.4138 35.9411 13.1376 35.373 13.7058C34.8048 14.2739 34.081 14.6609 33.2929 14.8176C32.5049 14.9744 31.688 14.8939 30.9457 14.5864C30.2034 14.2789 29.5689 13.7582 29.1225 13.0902C28.6761 12.4221 28.4379 11.6367 28.4379 10.8332C28.4379 9.75573 28.8659 8.72242 29.6277 7.96055C30.3896 7.19868 31.4229 6.77067 32.5004 6.77067Z" fill="black"/>
<path d="M28.4378 0H25.7295V4.0625H28.4378V0Z" fill="black"/>
<path d="M47.3955 29.3448V20.3125H18.958V29.3448L14.8955 34.7615V60.9375C14.8955 62.0149 15.3235 63.0483 16.0854 63.8101C16.8473 64.572 17.8806 65 18.958 65H47.3955C48.4729 65 49.5063 64.572 50.2681 63.8101C51.03 63.0483 51.458 62.0149 51.458 60.9375V34.7615L47.3955 29.3448ZM21.6663 23.0208H44.6872V28.4375H21.6663V23.0208ZM48.7497 60.9375C48.7497 61.2966 48.607 61.6411 48.353 61.895C48.0991 62.149 47.7547 62.2917 47.3955 62.2917H18.958C18.5989 62.2917 18.2544 62.149 18.0005 61.895C17.7465 61.6411 17.6038 61.2966 17.6038 60.9375V35.6552L20.9893 31.1458H45.3643L48.7497 35.6552V60.9375Z" fill="black"/>
</svg>
