<svg width="54" height="54" viewBox="0 0 54 54" fill="none" xmlns="http://www.w3.org/2000/svg">
<g clip-path="url(#clip0_101_1934)">
<path d="M41.5712 47.7003H24.3002V36.9003C24.3002 35.4063 21.6812 34.2003 18.4502 34.2003C17.6953 34.1972 16.9419 34.2665 16.2002 34.4073V24.6063C19.0469 17.9688 23.9024 13.1448 28.2152 11.0073C28.9845 11.4677 29.8657 11.7075 30.7622 11.7003H35.8022C36.7067 11.7066 37.595 11.4603 38.3672 10.9893C40.3292 11.9613 49.1762 17.0283 52.3712 30.6003C55.9712 45.9003 45.1712 47.7003 41.5712 47.7003Z" fill="#FFDC00"/>
<path d="M52.371 30.6003C49.176 17.0283 40.329 11.9613 38.367 10.9893C37.8762 11.2878 37.3347 11.4937 36.7695 11.5968C39.8556 13.44 46.8945 18.8103 49.671 30.6003C53.271 45.9003 42.471 47.7003 38.871 47.7003H41.571C45.171 47.7003 55.971 45.9003 52.371 30.6003Z" fill="#FEC108"/>
<path d="M42.2997 1.95339C42.3087 3.93339 41.9127 8.25339 38.7447 10.7284C38.626 10.8255 38.4996 10.9128 38.3667 10.9894C37.5945 11.4605 36.7062 11.7067 35.8017 11.7004H30.7617C29.8651 11.7076 28.9839 11.4679 28.2147 11.0074C28.0797 10.9174 27.9447 10.8274 27.8187 10.7284C24.6507 8.25339 24.2637 3.93339 24.2637 1.95339C24.2652 1.65406 24.4154 1.37507 24.6644 1.20903C24.9135 1.04299 25.2288 1.01164 25.5057 1.12539C26.6577 1.61139 27.0447 2.70039 28.7907 2.70039C31.0317 2.70039 31.0317 0.900391 33.2727 0.900391C35.5137 0.900391 35.5227 2.70039 37.7727 2.70039C39.5187 2.70039 39.9057 1.60239 41.0577 1.12539C41.3345 1.01164 41.6499 1.04299 41.8989 1.20903C42.148 1.37507 42.2982 1.65406 42.2997 1.95339Z" fill="#FFDC00"/>
<path d="M41.0577 1.12514C40.5332 1.3953 40.0436 1.72836 39.5997 2.11694C39.5871 4.16084 39.1326 8.31704 36.0465 10.7281C35.9278 10.8253 35.8014 10.9126 35.6685 10.9891C34.8963 11.4602 34.008 11.7065 33.1035 11.7001H35.8035C36.708 11.7065 37.5963 11.4602 38.3685 10.9891C38.5014 10.9126 38.6278 10.8253 38.7465 10.7281C41.9127 8.25314 42.3087 3.93314 42.2997 1.95314C42.2982 1.65381 42.148 1.37481 41.899 1.20878C41.6499 1.04274 41.3346 1.01139 41.0577 1.12514Z" fill="#FEC108"/>
<path d="M15.7504 9.9C18.9813 9.9 21.6004 8.69117 21.6004 7.2C21.6004 5.70883 18.9813 4.5 15.7504 4.5C12.5195 4.5 9.90039 5.70883 9.90039 7.2C9.90039 8.69117 12.5195 9.9 15.7504 9.9Z" fill="#FFDC00"/>
<path d="M21.6004 7.2002V16.1822C19.3341 18.6624 17.5079 21.5114 16.2004 24.6062V19.8002C16.2004 18.3062 13.5814 17.1002 10.3504 17.1002C10.1974 17.1002 10.0534 17.1002 9.90039 17.1092V7.2002C9.90039 8.6942 12.5194 9.9002 15.7504 9.9002C18.9814 9.9002 21.6004 8.6942 21.6004 7.2002Z" fill="#FF9801"/>
<path d="M16.2 19.8001C16.2 21.2941 13.581 22.5001 10.35 22.5001C7.119 22.5001 4.5 21.2941 4.5 19.8001C4.5 18.3781 6.876 17.2171 9.9 17.1091C10.053 17.1001 10.197 17.1001 10.35 17.1001C13.581 17.1001 16.2 18.3061 16.2 19.8001Z" fill="#FFDC00"/>
<path d="M16.2 19.8003V34.4073C14.085 34.8123 12.6 35.7753 12.6 36.9003V45.9003C12.6 44.4063 9.981 43.2003 6.75 43.2003C5.99511 43.1972 5.24166 43.2665 4.5 43.4073V19.8003C4.5 21.2943 7.119 22.5003 10.35 22.5003C13.581 22.5003 16.2 21.2943 16.2 19.8003Z" fill="#FF9801"/>
<path d="M12.6004 45.9003C12.6004 47.3943 9.98139 48.6003 6.75039 48.6003C3.51939 48.6003 0.900391 47.3943 0.900391 45.9003C0.900391 44.7753 2.38539 43.8123 4.50039 43.4073C5.24205 43.2665 5.9955 43.1972 6.75039 43.2003C9.98139 43.2003 12.6004 44.4063 12.6004 45.9003Z" fill="#FFEB3A"/>
<path d="M12.6004 45.9004V50.4004C12.6004 51.8944 9.98139 53.1004 6.75039 53.1004C3.51939 53.1004 0.900391 51.8944 0.900391 50.4004V45.9004C0.900391 47.3944 3.51939 48.6004 6.75039 48.6004C9.98139 48.6004 12.6004 47.3944 12.6004 45.9004Z" fill="#FFDC00"/>
<path d="M24.2996 36.9003C24.2996 38.3943 21.6806 39.6003 18.4496 39.6003C15.2186 39.6003 12.5996 38.3943 12.5996 36.9003C12.5996 35.7753 14.0846 34.8123 16.1996 34.4073C16.9413 34.2665 17.6947 34.1972 18.4496 34.2003C21.6806 34.2003 24.2996 35.4063 24.2996 36.9003Z" fill="#FFEB3A"/>
<path d="M24.2996 36.9004V48.6004C24.2996 50.0944 21.6806 51.3004 18.4496 51.3004C15.2186 51.3004 12.5996 50.0944 12.5996 48.6004V36.9004C12.5996 38.3944 15.2186 39.6004 18.4496 39.6004C21.6806 39.6004 24.2996 38.3944 24.2996 36.9004Z" fill="#FFDC00"/>
<path d="M42.5394 12.6578C47.0043 12.9944 48.4416 14.852 48.4839 14.9078C48.7659 15.3103 49.3186 15.4122 49.7256 15.1367C50.1325 14.8612 50.2433 14.3102 49.9743 13.8989C49.9095 13.8017 48.6594 12.0161 45.0243 11.1989C45.9538 10.4348 46.5037 9.30316 46.53 8.10018C46.4097 6.10573 45.0212 4.41448 43.0884 3.90798C43.1676 3.25787 43.2079 2.6036 43.209 1.94868C43.208 1.34532 42.9048 0.782578 42.4015 0.449901C41.8981 0.117224 41.2616 0.0588697 40.7061 0.294483C40.2517 0.500201 39.8297 0.770937 39.4533 1.09818C39.0116 1.55207 38.4036 1.80569 37.7703 1.80018C37.138 1.80463 36.5312 1.55113 36.09 1.09818C34.5039 -0.366712 32.0583 -0.366712 30.4722 1.09818C30.0305 1.55306 29.4214 1.80681 28.7874 1.80018C28.1552 1.80544 27.5484 1.55178 27.108 1.09818C26.7326 0.771639 26.3118 0.501229 25.8588 0.295383C25.3037 0.0613489 24.6684 0.1205 24.166 0.45298C23.6637 0.785459 23.361 1.34719 23.3595 1.94958C23.3595 4.18878 23.8023 8.18298 26.6058 10.865C25.1324 11.7609 23.7564 12.8078 22.5 13.9889V7.20018C22.5 5.14818 19.5975 3.60018 15.75 3.60018C11.9025 3.60018 9 5.14818 9 7.20018V16.2677C5.8437 16.5827 3.6 18.0002 3.6 19.8002V42.6917C1.4256 43.2758 0 44.4602 0 45.9002V50.4002C0 52.4522 2.9025 54.0002 6.75 54.0002C10.1907 54.0002 12.87 52.7609 13.3983 51.0302C14.9518 51.8527 16.693 52.256 18.45 52.2002C22.2975 52.2002 25.2 50.6522 25.2 48.6002V36.9002C25.2 34.8482 22.2975 33.3002 18.45 33.3002C17.9992 33.2999 17.5486 33.3224 17.1 33.3677V19.8002C17.1 17.8292 14.4207 16.328 10.8 16.2119V9.69228C12.3311 10.4705 14.0332 10.8515 15.75 10.8002C17.4668 10.8515 19.1689 10.4705 20.7 9.69228V15.8303C20.1078 16.4936 19.5111 17.2163 18.9234 18.0173C18.6543 18.418 18.7493 18.9597 19.1387 19.245C19.5281 19.5303 20.0732 19.4576 20.3742 19.0802C20.9522 18.2976 21.5717 17.5466 22.23 16.8302C22.2372 16.8221 22.2435 16.814 22.2507 16.8068C23.9688 14.8974 25.9863 13.2806 28.224 12.0197C28.6652 12.2325 29.1319 12.3877 29.6127 12.4814L27.2925 14.6468C26.9292 14.9863 26.9098 15.556 27.2493 15.9194C27.5888 16.2827 28.1586 16.3021 28.5219 15.9626L32.1219 12.6047H32.409V15.3047C32.409 15.8017 32.8119 16.2047 33.309 16.2047C33.8061 16.2047 34.209 15.8017 34.209 15.3047V12.6002H34.4961L38.0961 15.9581C38.3311 16.1777 38.6655 16.2552 38.9732 16.1615C39.2809 16.0677 39.5152 15.8169 39.5879 15.5036C39.6606 15.1902 39.5606 14.8619 39.3255 14.6423L36.99 12.4679C37.4679 12.3733 37.9316 12.2175 38.3697 12.0044C40.7484 13.2914 48.5676 18.3764 51.4962 30.8063C52.7697 36.2171 52.3107 40.3562 50.1327 43.1057C47.3463 46.6202 42.5115 46.8002 41.571 46.8002H28.8C28.3029 46.8002 27.9 47.2031 27.9 47.7002C27.9 48.1972 28.3029 48.6002 28.8 48.6002H41.571C43.101 48.6002 48.3255 48.2843 51.543 44.2235C54.0792 41.0204 54.6534 36.3674 53.2476 30.3941C51.03 20.9702 46.0998 15.5099 42.5394 12.6578ZM6.75 44.1002C9.7263 44.1002 11.7 45.1802 11.7 45.9002C11.7 46.6202 9.7263 47.7002 6.75 47.7002C3.7737 47.7002 1.8 46.6202 1.8 45.9002C1.8 45.1802 3.7737 44.1002 6.75 44.1002ZM6.75 52.2002C3.7737 52.2002 1.8 51.1202 1.8 50.4002V48.3923C3.33111 49.1705 5.03324 49.5515 6.75 49.5002C8.46677 49.5515 10.1689 49.1705 11.7 48.3923V50.4002C11.7 51.1202 9.7263 52.2002 6.75 52.2002ZM18.45 50.4002C15.4737 50.4002 13.5 49.3202 13.5 48.6002V39.3923C15.0311 40.1705 16.7332 40.5515 18.45 40.5002C20.1668 40.5515 21.8689 40.1705 23.4 39.3923V48.6002C23.4 49.3202 21.4263 50.4002 18.45 50.4002ZM23.4 36.9002C23.4 37.6202 21.4263 38.7002 18.45 38.7002C15.4737 38.7002 13.5 37.6202 13.5 36.9002C13.5 36.1802 15.4737 35.1002 18.45 35.1002C21.4263 35.1002 23.4 36.1802 23.4 36.9002ZM11.7 36.9002V43.4081C10.1689 42.6299 8.46677 42.2489 6.75 42.3002C6.29915 42.2999 5.84857 42.3224 5.4 42.3677V22.2923C6.93111 23.0705 8.63323 23.4515 10.35 23.4002C12.0668 23.4515 13.7689 23.0705 15.3 22.2923V33.6917C13.1256 34.2758 11.7 35.4602 11.7 36.9002ZM15.3 19.8002C15.3 20.5202 13.3263 21.6002 10.35 21.6002C7.3737 21.6002 5.4 20.5202 5.4 19.8002C5.4 19.0802 7.3737 18.0002 10.35 18.0002C13.3263 18.0002 15.3 19.0802 15.3 19.8002ZM15.75 9.00018C12.7737 9.00018 10.8 7.92018 10.8 7.20018C10.8 6.48018 12.7737 5.40018 15.75 5.40018C18.7263 5.40018 20.7 6.48018 20.7 7.20018C20.7 7.92018 18.7263 9.00018 15.75 9.00018ZM44.73 8.10018C44.73 9.57528 43.1325 10.7858 41.13 10.8002C40.7951 10.7981 40.4613 10.7597 40.1346 10.6859C41.4405 9.29205 42.3484 7.57326 42.7635 5.70888C43.8468 6.02808 44.626 6.9756 44.73 8.10018ZM25.9812 2.50218C26.7413 3.21439 27.7458 3.60745 28.7874 3.60018C29.8296 3.60801 30.8349 3.2149 31.5954 2.50218C32.0403 2.05303 32.6462 1.80033 33.2784 1.80033C33.9106 1.80033 34.5165 2.05303 34.9614 2.50218C35.7219 3.21543 36.7277 3.60861 37.7703 3.60018C38.8128 3.60824 39.8185 3.21511 40.5792 2.50218C40.8286 2.28175 41.1061 2.09533 41.4045 1.94778C41.4045 3.61908 41.094 7.75098 38.1942 10.0163C37.5418 10.5062 36.751 10.7769 35.9352 10.7894C36.7143 9.45119 37.331 8.0248 37.7721 6.54048C37.8583 6.23052 37.7725 5.89813 37.5472 5.66852C37.3218 5.43891 36.9911 5.34697 36.6796 5.42732C36.3681 5.50767 36.1231 5.74812 36.0369 6.05808C35.5384 7.74987 34.7721 9.35086 33.7671 10.8002H32.8419C31.8389 9.34958 31.0724 7.74897 30.5712 6.05808C30.4377 5.57917 29.9413 5.29912 29.4624 5.43258C28.9835 5.56604 28.7034 6.06247 28.8369 6.54138C29.2785 8.02698 29.8957 9.45458 30.6756 10.7939C29.8435 10.7896 29.0349 10.5172 28.3698 10.0172C25.47 7.75278 25.1595 3.62088 25.1595 1.95498C25.4577 2.09788 25.7344 2.28209 25.9812 2.50218Z" fill="black"/>
<path d="M48.7214 41.9879C49.7881 40.5212 50.3662 38.756 50.3738 36.9425C50.3853 36.704 50.3016 36.4707 50.141 36.294C49.9805 36.1173 49.7564 36.0116 49.5179 36.0002C49.0233 35.9817 48.6046 36.362 48.5756 36.8561C48.5824 38.2934 48.1396 39.6968 47.3093 40.8701C45.5534 43.0877 42.2216 43.2002 41.5709 43.2002C41.0738 43.2002 40.6709 43.6031 40.6709 44.1002C40.6709 44.5972 41.0738 45.0002 41.5709 45.0002C42.3665 45.0002 46.4498 44.8553 48.7214 41.9879Z" fill="black"/>
<path d="M30.5998 30.6003C30.5998 30.1032 30.1969 29.7003 29.6998 29.7003C29.2027 29.7003 28.7998 30.1032 28.7998 30.6003C28.7998 32.5885 30.4116 34.2003 32.3998 34.2003V35.1003C32.3998 35.5974 32.8027 36.0003 33.2998 36.0003C33.7969 36.0003 34.1998 35.5974 34.1998 35.1003V34.2003C36.188 34.2003 37.7998 32.5885 37.7998 30.6003C37.7998 28.6121 36.188 27.0003 34.1998 27.0003V23.4003C35.1939 23.4003 35.9998 24.2062 35.9998 25.2003C35.9998 25.6973 36.4027 26.1003 36.8998 26.1003C37.3969 26.1003 37.7998 25.6973 37.7998 25.2003C37.7998 23.2121 36.188 21.6003 34.1998 21.6003V20.7003C34.1998 20.2032 33.7969 19.8003 33.2998 19.8003C32.8027 19.8003 32.3998 20.2032 32.3998 20.7003V21.6003C30.4116 21.6003 28.7998 23.2121 28.7998 25.2003C28.7998 27.1885 30.4116 28.8003 32.3998 28.8003V32.4003C31.4057 32.4003 30.5998 31.5944 30.5998 30.6003ZM30.5998 25.2003C30.5998 24.2062 31.4057 23.4003 32.3998 23.4003V27.0003C31.4057 27.0003 30.5998 26.1944 30.5998 25.2003ZM34.1998 28.8003C35.1939 28.8003 35.9998 29.6062 35.9998 30.6003C35.9998 31.5944 35.1939 32.4003 34.1998 32.4003V28.8003Z" fill="black"/>
</g>
<defs>
<clipPath id="clip0_101_1934">
<rect width="54" height="54" fill="white"/>
</clipPath>
</defs>
</svg>
