<svg width="45" height="37" viewBox="0 0 45 37" fill="none" xmlns="http://www.w3.org/2000/svg">
<g clip-path="url(#clip0_101_2104)">
<path d="M22.3855 17.4923C25.5341 14.237 30.0355 11.115 34.7694 9.3874C36.1907 8.86868 37.696 8.53973 39.149 8.0835V20.6012C39.1485 22.8364 39.1922 25.0771 39.1278 27.3118L22.3772 36.1813C16.7469 33.2812 11.2049 30.2638 5.61368 27.3161L5.6123 8.11134C8.12522 8.75317 10.5885 9.45338 12.8059 10.6067C12.3131 11.8002 11.8898 13.0017 11.4793 14.2142C10.8726 13.9598 10.292 13.6518 9.70919 13.3645C9.83789 17.2746 9.71516 21.202 9.73676 25.1142C11.2251 25.9812 12.8279 26.7647 14.3641 27.5802L22.3813 31.8291L35.0144 25.1222C35.1316 21.2168 35.0245 17.2856 35.0227 13.3784C29.2159 16.1207 26.1647 19.0871 22.374 23.406C21.6018 22.5799 20.9003 21.7108 20.129 20.8822C19.4014 20.1004 18.6071 19.3638 17.8202 18.6192C18.0289 17.2151 18.4936 15.8262 18.939 14.4602C19.6179 15.0175 20.2977 15.5727 20.9491 16.1498C21.4331 16.5941 21.912 17.0417 22.3855 17.4923Z" fill="#D3B666"/>
<path d="M22.3672 0.53418C22.922 0.937509 23.4331 1.42526 23.9254 1.87647C26.573 4.30193 28.4663 7.01036 29.9703 9.97251C28.7807 10.6831 27.6059 11.3776 26.494 12.165C25.4124 9.89083 24.101 7.89094 22.3732 5.88163C18.24 10.6321 16.2616 16.0566 15.8971 21.7826L22.3792 25.2265L28.857 21.7788C28.8143 20.908 28.7256 20.0389 28.5904 19.174C28.8874 18.9099 29.2087 18.6593 29.5176 18.4036C30.4148 17.7315 31.3332 17.0772 32.2718 16.4418C32.7586 18.9508 33.0454 21.3915 32.9948 23.9329C31.2063 24.9565 29.3227 25.899 27.4887 26.8719C25.7921 27.7713 24.1111 28.724 22.3667 29.5631C21.0457 28.913 19.7665 28.197 18.4749 27.511L11.7455 23.9401C11.7111 16.7363 13.7699 9.38832 19.2071 3.46954C20.1627 2.42903 21.2778 1.48728 22.3672 0.53418Z" fill="#D3B666"/>
<path d="M11.6465 3.65113C12.21 3.60147 12.7046 3.60459 13.2346 3.79445C13.9351 4.04564 14.4467 4.54436 14.7146 5.10484C15.0585 5.83215 15.0157 6.63779 14.597 7.34012C14.198 7.99506 13.5683 8.37283 12.7133 8.5985C12.2265 8.65988 11.7329 8.62524 11.2755 8.47653C10.558 8.24309 10.0335 7.75855 9.74901 7.19798C9.38818 6.48604 9.39324 5.6463 9.80049 4.9471C10.1912 4.27637 10.7924 3.90435 11.6465 3.65113Z" fill="#D3B666"/>
<path d="M34.0263 8.2233C33.854 8.32743 33.6517 8.41488 33.4518 8.48188C32.8804 8.67354 32.2102 8.68376 31.6366 8.49424C30.9168 8.25651 30.3776 7.76036 30.0834 7.19933C29.7102 6.48494 29.7194 5.68203 30.1096 4.97321C30.4305 4.39792 31.0528 3.89464 31.8172 3.68884C32.4212 3.52629 33.1498 3.61307 33.7041 3.84844C34.4308 4.15701 34.9392 4.75049 35.1493 5.36949C35.4223 6.17484 35.2283 6.94277 34.6997 7.64898C34.4924 7.8652 34.2778 8.04071 34.0263 8.2233Z" fill="#D3B666"/>
</g>
<defs>
<clipPath id="clip0_101_2104">
<rect width="45" height="37" fill="white"/>
</clipPath>
</defs>
</svg>
